<?xml version="1.0" standalone="no"?>
<!DOCTYPE svg PUBLIC "-//W3C//DTD SVG 20010904//EN"
 "http://www.w3.org/TR/2001/REC-SVG-20010904/DTD/svg10.dtd">
<svg version="1.0" xmlns="http://www.w3.org/2000/svg"
 width="271.000000pt" height="263.000000pt" viewBox="0 0 271.000000 263.000000"
 preserveAspectRatio="xMidYMid meet">

<g transform="translate(0.000000,263.000000) scale(0.100000,-0.100000)"
fill="#000000" stroke="none">
<path d="M80 2025 l0 -505 830 0 830 0 0 505 0 505 -830 0 -830 0 0 -505z
m1620 0 l0 -465 -790 0 -790 0 0 465 0 465 790 0 790 0 0 -465z"/>
<path d="M2350 2000 c0 -523 0 -530 20 -530 20 0 20 7 20 530 0 523 0 530 -20
530 -20 0 -20 -7 -20 -530z"/>
<path d="M2265 1266 c-88 -41 -137 -118 -137 -216 0 -141 99 -239 242 -240 57
0 73 5 120 33 139 83 160 256 46 373 -76 78 -173 96 -271 50z"/>
<path d="M80 615 l0 -505 830 0 830 0 0 505 0 505 -830 0 -830 0 0 -505z
m1620 0 l0 -465 -790 0 -790 0 0 465 0 465 790 0 790 0 0 -465z"/>
<path d="M2350 370 c0 -263 0 -270 20 -270 20 0 20 7 20 270 0 263 0 270 -20
270 -20 0 -20 -7 -20 -270z"/>
</g>
</svg>
