<?xml version="1.0" encoding="utf-8"?>
<!-- Svg Vector Icons : http://www.onlinewebfonts.com/icon -->
<!DOCTYPE svg PUBLIC "-//W3C//DTD SVG 1.1//EN" "http://www.w3.org/Graphics/SVG/1.1/DTD/svg11.dtd">
<svg version="1.1" xmlns="http://www.w3.org/2000/svg" xmlns:xlink="http://www.w3.org/1999/xlink" x="0px" y="0px" viewBox="0 0 1000 1000" enable-background="new 0 0 1000 1000" xml:space="preserve">
<metadata> Svg Vector Icons : http://www.onlinewebfonts.com/icon </metadata>
<g><g transform="translate(0.000000,248.000000) scale(0.100000,-0.100000)"><path d="M4691.8,2385.8c-759.3-83.9-1250.9-207.8-1774.4-455.6C1542.7,1286.8,563.6,83.9,191.9-1422.7c-79.9-327.7-91.9-475.6-91.9-1119c0-643.4,12-787.3,91.9-1119C651.5-5503,1966.3-6833.8,3812.6-7329.4c371.7-95.9,455.6-103.9,1178.9-103.9c707.4,4,815.3,12,1163,103.9C7805-6885.8,9019.9-5794.8,9611.4-4232.2c363.7,959.1,383.6,2234,59.9,3209.1C9343.6-48,8760.1,779.3,7976.9,1366.7c-659.4,499.6-1374.8,815.3-2126,943.2C5487.1,2373.8,4911.6,2409.8,4691.8,2385.8z M6122.5,1842.3c771.3-203.8,1490.7-623.4,2070.2-1202.9C8860-28,9279.7-847.3,9443.5-1802.4c151.9-879.2-4-1966.2-399.6-2745.5c-295.7-579.5-847.2-1238.9-1366.8-1626.5C6378.3-7149.6,4552-7333.4,3085.3-6638C1714.5-5990.6,783.4-4763.7,531.6-3269.1c-91.9,539.5-59.9,1326.8,79.9,1858.3C935.2-159.9,1822.4,931.1,2973.4,1506.6c739.3,363.7,1238.9,471.6,2118.1,451.6C5619,1946.2,5798.8,1926.2,6122.5,1842.3z"/><path d="M4711.8-203.8v-1418.7H4552c-87.9,0-159.9-12-155.9-28c4-40,679.4-659.4,739.3-679.4c24-8,211.8,147.9,419.6,343.7l375.7,359.7l-187.9,4h-191.8v1418.7v1418.7h-419.6h-419.6V-203.8z"/><path d="M4152.3,471.6c-323.7-83.9-911.2-387.6-1151-599.5c-111.9-99.9-207.8-195.8-207.8-207.8c0-16,239.8-259.8,535.5-539.5l535.5-507.5l203.8,135.9c111.9,75.9,263.8,155.8,343.7,183.8l139.9,48v775.3v775.3l-87.9-4C4412.1,531.5,4272.2,503.5,4152.3,471.6z"/><path d="M2481.9-659.4C2154.1-1103,1878.4-1830.4,1874.4-2250v-131.9h755.3c799.3,0,803.3,0,803.3,191.8c0,36,51.9,179.8,115.9,311.7l115.9,243.8L3117.3-1087l-547.5,547.5L2481.9-659.4z"/><path d="M7900.9-1470.7l-11.9-171.8l-859.2-12l-859.2-12l-419.6-395.6l-419.6-395.6l1294.8-4h1290.8l-16-159.8c-8-88-4-159.9,12-159.9c12,0,199.8,167.8,411.6,371.6l391.6,367.7l-399.6,371.7l-403.6,367.7L7900.9-1470.7z"/><path d="M6534.2-2809.5c-12-107.9-67.9-287.7-123.9-403.6c-56-119.9-99.9-219.8-99.9-223.8c0-8,255.8-231.8,563.5-503.5l567.5-495.6l92,119.9c211.8,263.8,451.6,827.2,515.5,1210.9l27.9,179.8l-159.9-127.9c-87.9-71.9-171.8-127.9-183.8-127.9c-12,0-24,127.9-24,279.7v279.7h-575.5h-571.5L6534.2-2809.5z"/><path d="M1874.4-2813.5c0-411.6,327.7-1258.9,607.5-1578.6l131.9-151.9l535.5,535.5l535.5,539.5l-103.9,211.8c-56,119.9-123.9,299.7-151.9,407.6l-44,187.9h-755.3h-755.3V-2813.5z"/><path d="M5970.7-3764.6c-155.9-127.9-479.6-279.7-667.4-311.7l-151.8-28v-779.3c0-723.4,4-779.3,71.9-759.3c36,8,167.9,32,287.8,44c311.7,40,803.3,227.8,1135,435.6c323.7,203.8,619.4,487.6,563.5,539.5c-99.9,84-1007.1,867.2-1059,911.2C6102.5-3676.7,6066.6-3688.7,5970.7-3764.6z"/><path d="M3345.1-4236.2c-283.7-291.8-511.5-543.5-511.5-555.5c0-47.9,515.5-403.6,775.3-535.5c275.7-139.9,683.4-259.8,1035.1-303.7l187.8-27.9v775.3v775.3l-155.9,28c-191.8,31.9-603.5,223.8-679.4,311.7c-28,40-75.9,68-99.9,64C3872.6-3708.7,3624.8-3948.5,3345.1-4236.2z"/></g></g>
</svg>